<!-- Generated by IcoMoon.io -->
<svg version="1.1" xmlns="http://www.w3.org/2000/svg" width="1024" height="1024" viewBox="0 0 1024 1024">
<title></title>
<g id="icomoon-ignore">
</g>
<path d="M419.354 180.348c2.869-2.516 5.694-5.341 8.563-8.21 14.78 4.608 27.176 9.564 39.101 15.34-0.612 1.388 1.903 5.67 2.963 7.832-0.477 0.008-1.039 0.012-1.602 0.012-10.869 0-21.36-1.617-31.245-4.624 13.604 24.077 28.213 47.603 34.26 74.35 9.975 20.657 16.772 45.286 37.429 58.13 10.132-4.827 22.214-9.342 34.719-12.846 9.154-1.454 14.142 5.299 19.306 9.227 5.341-15.316 21.407-19.597 34.957-24.585-10.328-11.034-21.054 6.753-32.088 8.21 5.341-9.975 11.785-19.244 16.419-29.572-12.844 1.412-23.879-5.694-36.37-7.503-7.166-8.733-15.989-15.821-26.024-20.846-7.609-2.724-7.212-10.889-9.021-16.627 17.655 3.928 33.854 13.241 49.214 22.819 12.844 8.828 28.16 11.432 41.71 18.891 26.041 11.034 54.908 10.328 82.361 16.066 9.946 12.109 19.156 25.642 27.102 39.972 3.176 10.654 1.764 20.276 3.176 29.545 0.706 8.828 6.047 18.538 0.353 27.101-6.4 9.269-14.963 19.244-26.748 20.701-14.439 2.079-26.879 9.365-35.589 19.857-11.507 15.056-6.828 35.050-12.213 52.485-4.414 15.316-0.706 34.604-13.903 46.345-11.785-8.828-13.55-24.938-9.622-38.488 6.4-20.701 8.563-43.52 21.76-61.793-2.851-1.221-5.2-2.417-7.462-3.744-11.429 10.144-28.201 17.295-32.129 33.67-3.928 15.669-4.988 32.441-15.316 45.992 1.29 8.291 2.194 18.136 2.506 28.13 0.716 9.652-17.116 13.228-18.175 2.899-9.269-28.16 9.975-53.495 18.891-78.433 2.869-8.21 11.785-12.844 13.55-21.407-8.21 3.222-16.419 6.797-24.982 9.622-8.673 13.111-16.467 28.15-22.616 44.009-7.706 20.874-0.556 44.399-14.106 61.525l-10.328-1.412c-1.059-24.938 1.766-50.626 12.844-73.446 3.928-11.785 16.419-18.538 19.597-30.676-31.36 22.741-52.454 57.989-55.932 98.275-1.095 5.141-0.388 12.291-6.082 14.056-4.414 0-9.269 0-13.903-0.353 2.119-16.022 4.414-31.735 6.047-47.757 7.15-20.701 26.483-33.854 37.782-52.039-16.066 3.222-22.466 19.597-32.441 30.323-17.655 20.701-32.088 46.345-28.513 74.505-5.341 1.766-11.034 3.222-16.419 4.634-6.753-13.241-1.412-27.807 1.059-41.004 7.15-20.303 19.244-39.724 37.429-51.686 0.353-5.341 7.857-13.903-0.706-15.316-28.513 17.655-47.051 49.214-55.261 81.302-3.222 9.269-3.575 20.303-11.034 27.454-5.007-0.129-9.8-0.638-14.469-1.499-1.2-23.792 12.703-44.493 16.985-67.312 7.15-11.432 16.419-23.172 29.219-28.16 4.988-1.412 10.328-7.857 4.414-11.785-17.655-1.412-34.604 4.988-51.686 8.828-4.348 4.656-7.941 10.088-10.539 16.053-5.13 29.232-1.201 58.143 0.564 87.009 1.412 1.412 4.634 3.575 6.4 4.988-10.328 18.185-16.022 38.886-27.454 55.967-16.419 13.55-38.135 6.797-56.32 2.119-9.136-4.088-20.060-7.866-31.351-10.725-21.747-4.238-34.944-21.363-52.776-30.279-15.669-7.503-29.219-19.244-45.639-25.688-8.563-2.869-13.903-12.138-23.172-13.903-6.047-1.412-11.388 2.869-16.772 5.694-12.183 7.494-26.455 12.977-41.711 15.57 2.789-12.632 7.909-23.777 14.532-33.846 34.683-10.59 69.243 8.654 97.403 28.251 22.466 8.828 39.239 28.16 61.308 37.782 22.069 5.694 43.873 16.419 67.046 15.316 11.432-12.491 26.041-23.526 29.97-41.004 6.753-16.066-1.412-32.441-3.222-48.552 2.516-24.938 5.694-50.979 19.95-72.386-10.328 0.706-16.066 11.034-25.688 14.257 0.353-3.928 1.059-11.432 1.412-15.316-8.563 7.15-16.066 15.669-25.688 21.054-11.034 6.797-22.819 12.138-31.735 21.76-8.194 3.648-17.939 6.949-28.023 9.379-16.159 2.362-29.71 9.512-44.319 12.735-3.853 0.405-8.325 0.636-12.851 0.636-5.645 0-11.206-0.359-16.662-1.056-11.491-19.177-17.008-41.643-21.819-63.756-6.753-14.61-6.4-30.897-11.388-45.639-20.303-24.938-32.441-55.614-51.686-81.302-9.975 10.328-7.503 26.041-9.269 39.724-0.769 24.285-4.233 47.404-10.106 69.543-2.738 11.759-2.385 26.369-7.726 39.566-3.222-0.706-9.975-1.766-13.241-2.516 1.766-14.257 3.575-28.16 4.414-42.417 0.706-23.172 10.681-45.286 11.034-68.458-9.269 2.869-9.975 12.844-12.491 20.701-4.414 20.657-9.622 42.417-23.172 59.189-12.844-1.059-2.869-16.419 0-22.819 8.21-11.785 3.928-26.748 7.503-39.724 4.988-11.034 13.241-20.701 17.655-32.441-8.563 1.059-17.126 3.222-22.819 9.975-10.814 12.226-28.866 6.488-41.49 15.757-6.702 5.409-14.928 9.197-23.938 10.643-4.222-4.596-2.412-9.936-1-14.924 34.604-3.575 57.379-34.604 91.277-41.004-6.4-9.269 3.928-10.681 10.328-13.55 6.047-11.432 19.244-14.61 30.897-16.419 19.244-4.634 32.794 22.466 22.069 37.076-4.132-7.896-8.526-14.673-13.468-21.002-1.892 1.36-6.527 4.229-8.601 5.642 3.51 2.251 6.534 4.489 9.402 6.906 3.442 13.441 19.818 15.913 24.452 28.757 13.541 26.072 27.948 58.646 40.56 92.1 9.713 24.336 4.725 50.201 25.382 59.646 17.655 3.222 30.897-12.138 47.801-14.257 21.407-3.575 37.782-18.538 54.201-30.897 0.739-3.955 1.162-8.506 1.162-13.156 0-5.311-0.552-10.493-1.601-15.493-4.328 0.488-8.742 0.135-13.465-0.218-2.516-6.4 2.119-11.388 5.341-16.419-9.622-14.963-28.513-14.963-43.123-21.054-12.844-7.503-15.316-24.585-26.041-34.207-8.563-3.575-18.538-3.222-25.688-9.975-21.628-15.272-43.741-29.881-65.324-45.197-13.241-13.241-27.454-27.101-45.992-31.735l-4.414-7.15c-8.634-1.975-16.258-5.173-23.138-9.453-9.304-6.216-22.148-8.643-29.254-18.707-22.466-5.694-45.639-13.903-64.883-27.807 1.412-2.516 3.928-7.857 4.988-10.328 17.035 9.809 36.743 17.874 57.557 23.173 23.701 5.693 37.649 27.453 60.468 31.028 17.655 11.388 33.854 26.041 52.966 35.663 9.269 4.988 14.963 13.55 21.76 21.054 5.252 6.532 14.345 6.532 21.142 10.284 5.694 4.988 10.328 10.681 15.669 16.419 18.891-0.706 30.897 16.066 42.77 28.513 0.353 3.222 1.059 8.828 1.412 12.138 1.412-2.119 3.928-6.753 5.341-8.828 16.066 1.766 25.688 13.903 33.501 26.483 13.241-0.706 22.069 9.622 32.794 14.257 14.963 1.766 34.604 0.706 41.004 17.655 11.034-2.869 22.819-6.753 33.501-1.766 23.172 11.432 49.567 3.575 74.152 4.988 6.753-0.353 11.785 4.988 17.126 8.563 1.059-1.766 3.222-5.694 4.414-7.503 20.657 0.353 32.794-21.054 52.966-22.069 23.172 0.353 47.404-3.222 67.752-15.316 13.55-6.753 30.323-8.21 42.417-18.538 8.828-16.066 6.4-37.076-1.059-53.495-7.865-5.432-14.749-11.237-21.033-17.634-6.785-1.522-14.555-2.382-22.526-2.382-3.997 0-7.944 0.216-11.829 0.638-11.587 5.676-21.876 11.734-31.562 18.586-12.889 9.178-15.008 28.775-29.308 37.691-7.503-9.269-1.766-21.407-0.706-31.735-2.43 1.179-5.285 1.868-8.301 1.868-4.24 0-8.162-1.362-11.353-3.673-7.447 5.733-14.906 11.073-22.763 16.458-12.491-5.341-24.585-12.491-38.488-12.491-8.216-11.72-15.523-25.107-21.272-39.29-6.888-22.017-9.315-44.483-22.557-61.962-10.681-14.257-14.61-31.735-21.407-48.154v0zM733.837 241.302c-7.304-1.658-15.86-2.811-24.613-3.21 1.793 24.926 0.028 50.614 7.531 75.023 6.047 23.526 11.785 47.404 16.066 71.327 2.516 7.857-6.797 12.138-11.034 17.655 2.163 9.975-2.516 18.891-9.269 26.483 4.547 4.552 9.431 8.764 14.613 12.597 7.501 2.366 17.476-1.871 17.476-10.081 1.766-8.828 3.928-17.655 5.694-26.483 1.766-24.232-10.328-46.698-13.241-70.621-2.869-21.407-9.622-42.063-12.491-63.47 0.353-4.988-3.222-12.844 2.516-16.066 9.269 3.575 14.61 12.491 20.657 19.597 14.61 18.891 33.501 33.501 48.154 52.039 16.419 20.701 37.782 35.663 54.554 55.967 4.414 4.414 8.21 11.785 15.316 11.785 13.903 1.412 35.31 0.706 38.135-16.772 32.947-3.030 62.506-7.708 91.408-14.131-3.668-2.019-2.465-4.491-1.069-6.834-1.887-1.192-5.815-3.708-7.625-4.768-19.95 4.988-40.298 12.491-61.308 10.328 8.563-5.341 18.538-6.4 28.513-7.857 16.066-1.766 30.897-10.328 47.404-9.269 6.644-5.841 14.134-10.992 22.196-15.197-1.893-3.871-5.777-7.799-10.765-5.636-13.55 3.222-25.335 11.034-39.239 13.903 11.388-14.257 36.37-10.681 43.873-27.807-27.71 6.83-52.089 17.455-74.083 31.487-12.814 5.408-23.93 11.018-34.712 17.149-6.008 4.020-18.455 6.536-24.899-1.674-12.491-13.241-24.938-25.688-38.488-37.429-16.772-13.903-30.676-31.382-49.214-43.123-16.419-10.681-29.219-25.688-43.873-38.135-5.341-6.753-12.491 0.353-18.185 3.222M744.166 244.524c16.772 16.772 34.957 32.794 51.686 49.567 23.526 29.572 55.967 50.979 80.596 80.243-16.066 0.706-24.232-16.419-34.957-25.688-20.701-22.069-44.579-41.357-65.236-63.47-11.388-12.491-28.513-23.172-32.088-40.651v0zM472.85 252.734c6.753 14.61 11.388 30.676 20.303 44.579 2.516 5.341 8.828 4.414 13.55 6.753-1.412-4.634-2.516-8.828-3.928-13.241 1.71-1.888 3.453-3.63 5.278-5.284 5.404 2.062 10.744 4.578 16.129 6.697-3.928-22.069-26.041-32.441-39.724-48.154-3.928 2.869-7.857 5.694-11.388 8.563v0zM697.953 511.956c-14.61 16.419-32.794 29.219-49.92 42.77-16.772 7.15-35.663 7.15-52.392 14.61-17.655 7.503-36.37 9.975-52.966 18.891-18.185 9.269-38.135 15.316-53.848 28.513 7.857 3.222 16.066 6.047 23.879 9.269-4.414 3.575-8.563 7.503-13.241 11.034 21.054 9.975 40.298 23.172 62.411 30.676 28.513 12.844 58.483 19.244 87.702 29.572 13.55 4.634 28.513 5.341 41.357 12.138-0.732 14.444-3.551 27.999-8.164 40.693-6.092 15.098-0.752 32.885-7.196 48.952-5.723 15.57-9.503 33.573-10.528 52.31 1.168 0.541 2.56 0.576 3.96 0.576 6.684 0 13.18-0.808 19.395-2.332 1.693-23.45 5.089-44.521 9.716-65.125 2.478-15.058 4.529-36.73 5.034-58.785 6.41 10.502 2.128 24.053 4.644 36.191 2.472 16.772-2.163 34.251 4.988 49.92-1.412 11.079 4.414 20.303 9.622 29.219 5.745-1.936 10.717-4.729 15.046-8.276 1.329-13.175-5.071-25.622-6.881-38.069-3.575-21.76-10.328-42.77-13.903-64.53-1.766-11.388 0.706-26.041-8.828-34.604-60.954-16.419-121.953-33.854-180.436-58.483-3.072-0.957-5.443-3.328-6.382-6.332 4.969-3.996 10.31-0.068 14.944 1.344 31.644 14.211 71.502 29.007 112.374 41.481 24.189 6.453 39.858 13.824 56.983 15.59 13.241 1.412 14.61 16.772 16.772 27.101 4.414 18.891 6.047 39.724 18.538 55.261 4.414-1.766 8.21-3.575 12.491-5.341-4.779-14.007-9.816-32.412-13.922-51.165-5.322-15.175-16.401-24.046-15.65-37.597-16.419-5.694-33.854-8.21-49.567-15.669s-34.957-5.341-50.273-13.903c-19.597-10.681-42.77-9.975-63.117-18.538-12.844-7.15-28.16-6.047-41.004-13.241 20.303-10.681 43.52-15.316 64.53-24.585 19.244-9.622 41.357-8.563 61.308-14.257 15.316-9.269 25.291-24.938 40.651-34.251 8.828-5.341 14.963-13.55 22.069-21.054 7.503-8.563 22.819 3.928 28.866-7.15 8.21-9.622-2.869-24.938-13.241-26.041-10.681 4.988-17.126 15.669-26.041 23.172v0zM212.921 524.8c-2.516-1.766-4.988-3.928-7.15-5.694-1.412 4.988-3.222 10.328-4.634 15.669 8.776 3.053 18.891 4.816 29.418 4.816s20.642-1.763 30.066-5.011c10.386-3.028 21.112-10.487 22.524-22.625-22.819 7.503-45.639 17.126-70.223 12.844v0zM97.721 596.436c-7.325 5.669-13.409 12.54-18.047 20.368 9.087-1.433 18.709-2.89 26.918-8.495 18.185-12.844 38.488-22.819 57.777-34.251 4.794-3.679 8.654-8.33 11.329-13.677-3.781-3.14-7.93-5.656-12.344-8.657-22.819 13.55-43.873 29.572-65.589 44.579v0zM403.641 582.179c-2.869 8.563-2.119 18.891-8.828 25.688-6.356 5.65-7.194 14.477-10.417 21.76-11.785 7.15-24.585 16.772-38.841 13.55-13.55-2.516-28.16-11.034-40.298 0 7.15 4.414 13.903 10.328 22.466 12.138 13.241 2.516 26.483 9.622 39.724 3.928 24.938-4.414 38.886-30.676 39.724-53.848 0-7.857 3.575-17.126-3.222-23.172v0zM28.204 623.537c-11.034-1.766-18.538 4.634-23.172 14.257 0.706 2.119 1.766 6.047 2.516 8.21 12.844-1.059 20.303-13.55 32.088-17.655 1.412 0.706 3.928 2.119 4.988 2.869-13.626 6.56-25.368 14.108-36.060 22.888-3.62 5.801-2.914 13.658-4.105 20.455 16.772-5.341 27.101-19.95 39.724-30.897 12.491-11.785 26.748-22.819 33.501-38.841-17.655 3.928-35.31 7.857-49.92 18.891v0zM72.077 623.89c-23.879 18.538-41.71 44.579-68.458 59.189 1.692 7.733 3.773 14.403 6.355 20.816 12.139-10.929 28.558-15.343 37.474-28.981 10.328-14.257 19.244-29.97 33.501-41.004-1.766-4.414-1.412-14.257-8.828-9.975v0z"></path>
</svg>
